<svg version="1.1" id="Layer_1" xmlns="http://www.w3.org/2000/svg" xmlns:xlink="http://www.w3.org/1999/xlink" x="0px" y="0px"
	 width="100%" viewBox="0 0 1000 484" enable-background="new 0 0 1000 484" xml:space="preserve">
<path fill="#000000" opacity="1.000000" stroke="none" 
	d="
M766.000000,485.000000 
	C510.666656,485.000000 255.833328,485.000000 1.000000,485.000000 
	C1.000000,323.666656 1.000000,162.333328 1.000000,1.000000 
	C334.333344,1.000000 667.666687,1.000000 1001.000000,1.000000 
	C1001.000000,162.333328 1001.000000,323.666656 1001.000000,485.000000 
	C922.833313,485.000000 844.666687,485.000000 766.000000,485.000000 
M335.379028,291.034180 
	C329.381104,287.624542 323.376373,284.226776 317.386536,280.803040 
	C298.691223,270.116913 279.963501,259.486847 261.319061,248.712631 
	C236.550842,234.399628 211.870773,219.934082 187.110672,205.606964 
	C173.203262,197.559616 158.832809,190.245483 145.347931,181.551071 
	C126.456490,169.370789 106.563576,163.142532 84.016647,166.977600 
	C59.588612,171.132645 41.331985,184.178497 29.224262,205.543243 
	C20.159588,221.538361 17.904818,238.937454 21.014673,256.999969 
	C24.840555,279.221313 36.136574,296.640472 55.281265,308.622498 
	C64.261276,314.242706 73.715004,319.101135 82.886444,324.421326 
	C105.266228,337.403442 127.569481,350.517761 149.974335,363.456268 
	C168.479263,374.142578 187.129593,384.577148 205.636093,395.260773 
	C230.410721,409.562836 255.111954,423.992035 279.838379,438.377533 
	C294.287018,446.783508 308.817596,455.054016 323.138641,463.672455 
	C337.463989,472.293427 352.790344,477.410675 369.549896,476.896118 
	C382.582916,476.495941 394.831360,472.864746 406.326111,466.360291 
	C420.425995,458.381744 430.904480,446.961426 437.532959,432.575409 
	C443.674438,419.246368 446.175079,405.092926 444.206299,389.971680 
	C441.130707,366.349579 430.245667,347.626465 410.433380,335.146576 
	C386.104675,319.821808 360.846436,305.972717 335.379028,291.034180 
M563.479736,60.017094 
	C556.184448,81.089180 556.829102,101.879669 566.573303,121.984596 
	C574.778625,138.914322 588.615417,150.243332 604.931580,159.066299 
	C619.485107,166.936188 633.750000,175.343063 648.089600,183.604568 
	C666.184570,194.029709 684.218323,204.560989 702.293213,215.021072 
	C714.257996,221.945221 726.263794,228.798599 738.223694,235.731171 
	C752.127258,243.790359 765.986694,251.925858 779.891602,259.982788 
	C792.123718,267.070496 804.397766,274.085968 816.643433,281.150452 
	C834.458862,291.428070 852.023193,302.174500 870.154236,311.860687 
	C884.077515,319.299011 899.078186,322.182953 915.196899,320.188751 
	C931.874939,318.125397 946.593567,311.945618 958.535400,300.667938 
	C977.539978,282.720398 986.284973,260.501434 983.064758,233.964874 
	C980.208008,210.423431 969.175781,191.776184 949.426941,179.088120 
	C931.460693,167.545288 912.631165,157.342239 894.137268,146.626068 
	C880.094299,138.488983 865.955322,130.517807 851.905640,122.392273 
	C835.628967,112.978798 819.423462,103.442276 803.149292,94.024513 
	C789.383484,86.058365 775.543396,78.220894 761.773682,70.261444 
	C747.860535,62.219025 734.009338,54.069504 720.102112,46.016792 
	C705.503662,37.563862 690.832275,29.236441 676.263123,20.733582 
	C658.310852,10.256300 639.144531,7.616815 618.916748,11.540964 
	C606.659668,13.918802 595.760071,19.453102 586.360535,27.394547 
	C576.188965,35.988289 568.168213,46.427727 563.479736,60.017094 
M239.035904,71.455818 
	C231.426178,75.964485 223.868073,80.563187 216.195572,84.962387 
	C201.837173,93.195084 187.367538,101.234200 173.026566,109.496819 
	C154.642853,120.088669 136.336304,130.814545 118.007957,141.502289 
	C115.546844,142.937424 113.152466,144.487000 109.776688,146.570099 
	C120.710587,147.579102 137.753159,153.554428 145.797379,158.289474 
	C166.437057,170.438583 187.198502,182.380676 207.899124,194.426407 
	C226.380112,205.180557 244.903198,215.864365 263.283813,226.787720 
	C269.387543,230.415085 274.431793,231.564926 281.065430,226.815384 
	C290.041138,220.388947 300.145386,215.537460 309.772125,210.021851 
	C323.575287,202.113358 337.405609,194.252075 351.185455,186.303268 
	C367.475189,176.906631 383.696564,167.391434 399.999329,158.017563 
	C410.615631,151.913330 420.687378,145.345825 428.303101,135.334259 
	C442.471588,116.708397 448.082214,95.695152 443.715393,73.079666 
	C438.509766,46.120079 422.759644,26.361067 397.071442,15.662899 
	C377.669189,7.582600 357.759674,7.258627 338.296326,15.473653 
	C329.474030,19.197342 321.214783,24.305830 312.849792,29.050089 
	C300.544617,36.029099 288.404358,43.298138 276.136536,50.343895 
	C264.017487,57.304211 251.827271,64.140594 239.035904,71.455818 
M754.336304,268.031708 
	C747.630371,264.244781 740.855713,260.572327 734.254944,256.610138 
	C731.878906,255.183884 730.129028,255.228897 727.742493,256.617889 
	C712.335754,265.584778 696.798584,274.327271 681.366516,283.251221 
	C658.133789,296.686127 634.898499,310.118195 611.775513,323.740326 
	C602.637573,329.123596 592.849609,333.940857 585.004395,340.878143 
	C563.174561,360.181488 555.563232,384.987793 559.983826,413.656525 
	C562.519653,430.101868 570.422424,443.925507 582.052429,455.257385 
	C591.778687,464.734253 603.521423,471.464844 617.080444,474.610352 
	C631.359131,477.922791 645.933167,478.836151 659.269531,472.900818 
	C676.653931,465.163879 693.289124,455.674683 709.960388,446.423462 
	C726.255249,437.381073 742.149597,427.619720 758.294617,418.303741 
	C774.433044,408.991608 790.703003,399.907593 806.844971,390.601562 
	C827.585144,378.644623 848.270874,366.592957 868.946411,354.524384 
	C875.738708,350.559631 882.426086,346.415070 889.161438,342.352722 
	C889.129944,341.781433 889.098389,341.210144 889.066895,340.638855 
	C885.916382,339.502563 882.823059,338.161133 879.605896,337.263580 
	C860.093628,331.819794 844.116211,319.494934 826.675293,310.051575 
	C812.554016,302.405640 798.811951,294.058044 784.922058,285.986542 
	C774.919067,280.173706 764.949707,274.303009 754.336304,268.031708 
z"/>
<path fill="#FFFFFF" opacity="1.000000" stroke="none" 
	d="
M335.684509,291.259949 
	C360.846436,305.972717 386.104675,319.821808 410.433380,335.146576 
	C430.245667,347.626465 441.130707,366.349579 444.206299,389.971680 
	C446.175079,405.092926 443.674438,419.246368 437.532959,432.575409 
	C430.904480,446.961426 420.425995,458.381744 406.326111,466.360291 
	C394.831360,472.864746 382.582916,476.495941 369.549896,476.896118 
	C352.790344,477.410675 337.463989,472.293427 323.138641,463.672455 
	C308.817596,455.054016 294.287018,446.783508 279.838379,438.377533 
	C255.111954,423.992035 230.410721,409.562836 205.636093,395.260773 
	C187.129593,384.577148 168.479263,374.142578 149.974335,363.456268 
	C127.569481,350.517761 105.266228,337.403442 82.886444,324.421326 
	C73.715004,319.101135 64.261276,314.242706 55.281265,308.622498 
	C36.136574,296.640472 24.840555,279.221313 21.014673,256.999969 
	C17.904818,238.937454 20.159588,221.538361 29.224262,205.543243 
	C41.331985,184.178497 59.588612,171.132645 84.016647,166.977600 
	C106.563576,163.142532 126.456490,169.370789 145.347931,181.551071 
	C158.832809,190.245483 173.203262,197.559616 187.110672,205.606964 
	C211.870773,219.934082 236.550842,234.399628 261.319061,248.712631 
	C279.963501,259.486847 298.691223,270.116913 317.386536,280.803040 
	C323.376373,284.226776 329.381104,287.624542 335.684509,291.259949 
z"/>
<path fill="#FFFFFF" opacity="1.000000" stroke="none" 
	d="
M563.719177,59.691124 
	C568.168213,46.427727 576.188965,35.988289 586.360535,27.394547 
	C595.760071,19.453102 606.659668,13.918802 618.916748,11.540964 
	C639.144531,7.616815 658.310852,10.256300 676.263123,20.733582 
	C690.832275,29.236441 705.503662,37.563862 720.102112,46.016792 
	C734.009338,54.069504 747.860535,62.219025 761.773682,70.261444 
	C775.543396,78.220894 789.383484,86.058365 803.149292,94.024513 
	C819.423462,103.442276 835.628967,112.978798 851.905640,122.392273 
	C865.955322,130.517807 880.094299,138.488983 894.137268,146.626068 
	C912.631165,157.342239 931.460693,167.545288 949.426941,179.088120 
	C969.175781,191.776184 980.208008,210.423431 983.064758,233.964874 
	C986.284973,260.501434 977.539978,282.720398 958.535400,300.667938 
	C946.593567,311.945618 931.874939,318.125397 915.196899,320.188751 
	C899.078186,322.182953 884.077515,319.299011 870.154236,311.860687 
	C852.023193,302.174500 834.458862,291.428070 816.643433,281.150452 
	C804.397766,274.085968 792.123718,267.070496 779.891602,259.982788 
	C765.986694,251.925858 752.127258,243.790359 738.223694,235.731171 
	C726.263794,228.798599 714.257996,221.945221 702.293213,215.021072 
	C684.218323,204.560989 666.184570,194.029709 648.089600,183.604568 
	C633.750000,175.343063 619.485107,166.936188 604.931580,159.066299 
	C588.615417,150.243332 574.778625,138.914322 566.573303,121.984596 
	C556.829102,101.879669 556.184448,81.089180 563.719177,59.691124 
z"/>
<path fill="#FFFFFF" opacity="1.000000" stroke="none" 
	d="
M239.352081,71.243576 
	C251.827271,64.140594 264.017487,57.304211 276.136536,50.343895 
	C288.404358,43.298138 300.544617,36.029099 312.849792,29.050089 
	C321.214783,24.305830 329.474030,19.197342 338.296326,15.473653 
	C357.759674,7.258627 377.669189,7.582600 397.071442,15.662899 
	C422.759644,26.361067 438.509766,46.120079 443.715393,73.079666 
	C448.082214,95.695152 442.471588,116.708397 428.303101,135.334259 
	C420.687378,145.345825 410.615631,151.913330 399.999329,158.017563 
	C383.696564,167.391434 367.475189,176.906631 351.185455,186.303268 
	C337.405609,194.252075 323.575287,202.113358 309.772125,210.021851 
	C300.145386,215.537460 290.041138,220.388947 281.065430,226.815384 
	C274.431793,231.564926 269.387543,230.415085 263.283813,226.787720 
	C244.903198,215.864365 226.380112,205.180557 207.899124,194.426407 
	C187.198502,182.380676 166.437057,170.438583 145.797379,158.289474 
	C137.753159,153.554428 120.710587,147.579102 109.776688,146.570099 
	C113.152466,144.487000 115.546844,142.937424 118.007957,141.502289 
	C136.336304,130.814545 154.642853,120.088669 173.026566,109.496819 
	C187.367538,101.234200 201.837173,93.195084 216.195572,84.962387 
	C223.868073,80.563187 231.426178,75.964485 239.352081,71.243576 
z"/>
<path fill="#FFFFFF" opacity="1.000000" stroke="none" 
	d="
M754.650818,268.244904 
	C764.949707,274.303009 774.919067,280.173706 784.922058,285.986542 
	C798.811951,294.058044 812.554016,302.405640 826.675293,310.051575 
	C844.116211,319.494934 860.093628,331.819794 879.605896,337.263580 
	C882.823059,338.161133 885.916382,339.502563 889.066895,340.638855 
	C889.098389,341.210144 889.129944,341.781433 889.161438,342.352722 
	C882.426086,346.415070 875.738708,350.559631 868.946411,354.524384 
	C848.270874,366.592957 827.585144,378.644623 806.844971,390.601562 
	C790.703003,399.907593 774.433044,408.991608 758.294617,418.303741 
	C742.149597,427.619720 726.255249,437.381073 709.960388,446.423462 
	C693.289124,455.674683 676.653931,465.163879 659.269531,472.900818 
	C645.933167,478.836151 631.359131,477.922791 617.080444,474.610352 
	C603.521423,471.464844 591.778687,464.734253 582.052429,455.257385 
	C570.422424,443.925507 562.519653,430.101868 559.983826,413.656525 
	C555.563232,384.987793 563.174561,360.181488 585.004395,340.878143 
	C592.849609,333.940857 602.637573,329.123596 611.775513,323.740326 
	C634.898499,310.118195 658.133789,296.686127 681.366516,283.251221 
	C696.798584,274.327271 712.335754,265.584778 727.742493,256.617889 
	C730.129028,255.228897 731.878906,255.183884 734.254944,256.610138 
	C740.855713,260.572327 747.630371,264.244781 754.650818,268.244904 
z"/>
</svg>